<?xml version="1.0" encoding="utf-8"?>
<!-- Generator: Adobe Illustrator 22.0.1, SVG Export Plug-In . SVG Version: 6.00 Build 0)  -->
<svg version="1.1" id="_x31_f3c3" xmlns="http://www.w3.org/2000/svg" xmlns:xlink="http://www.w3.org/1999/xlink" x="0px" y="0px"
	 viewBox="0 0 36 36" style="enable-background:new 0 0 36 36;" xml:space="preserve">
<style type="text/css">
	.st0{fill:#FFDC5D;}
	.st1{fill:#FFAC33;}
	.st2{fill:#2A6797;}
	.st3{fill:#4289C1;}
	.st4{fill:#77B255;}
	.st5{fill:#D8000B;}
	.st6{fill:#8899A6;}
	.st7{fill:#BE1931;}
	.st8{fill:#A0041E;}
	.st9{fill:#DD2E44;}
	.st10{fill:#CCD6DD;}
</style>
<path class="st0" d="M30.2,28.1c-0.1,0.3-0.4,0.5-0.5,0.6c-0.2,0.2-0.5,0.2-0.7,0.2c-2.1,0.2-4.2,0.3-6.3,0.5
	c-0.7-0.2-1.3-0.8-1.5-1.5l-1.6-6.8c-0.3-1.1,0.4-2.2,1.5-2.4c1.1-0.3,2.2,0.4,2.4,1.5c0.4,2.2,0.8,4.4,1.3,6.6
	c1-0.2,1.8-0.2,2.3-0.2c1.8,0,2.9,0.3,2.9,0.4c0,0-0.1,0.1-0.1,0.2c0,0.1,0,0.1,0.1,0.2c0.2,0.2,0.2,0.4,0.2,0.6
	C30.2,28,30.2,28,30.2,28.1z"/>
<path class="st0" d="M19.1,7.2c0.3-0.4,0.6-0.9,0.7-1.5C20.2,3.5,19,1.4,17,1.1c-2-0.4-4.6,1.1-4.6,3.3c0.1,2.2,1.3,5.4,3.1,4.9
	C16,9,16.5,8.9,17,8.7c0.2,0.2,0.3,0.6,0.3,1.4c-0.2,1.9,2.5,2.6,2.7,0.7C20.1,9.2,19.1,8.3,19.1,7.2z"/>
<path class="st1" d="M13.3,1.6c2.7-1.6,4.5-1.4,5.9-0.1c1.5,1.2,1.5,3.4,1.1,4.9c-0.4,1.4-0.8,1.3-0.8,1.3s-2,0.4-2.1-1.4
	c0-0.6,0.6-0.9-0.1-1.7c-0.4-0.5-1.5-0.3-1.5,0.5c0,0.8-0.4,0.6-0.4,0.6l-1.2-2.1c0,0-1-0.1-1.6,0.9C12.3,5,11,3,13.3,1.6z"/>
<path class="st0" d="M26.4,18.3c-0.4,0-0.9-0.2-0.9-0.6c-0.1-1.8-0.5-3.7-1.7-4.6c-2.1-1.5-5.7-0.9-5.7-0.9
	c-0.5-0.2-0.8-0.7-0.6-1.3c0.2-0.5,0.7-0.8,1.3-0.6c0.2,0.1,3.7-0.2,6.3,1.2c1.7,0.9,2,3.5,2.3,5.3c0.1,0.5,0,1.1-0.4,1.3
	C26.7,18.3,26.6,18.3,26.4,18.3z"/>
<path class="st0" d="M12.6,33.8c-0.3,0-0.5,0-0.7-0.1c-0.3-0.3-0.3-1.1,0.2-1.9c-0.3-2.6-0.6-5.1-0.9-7.7c-0.1-0.8,0.4-1.6,1.2-1.8
	l7.9-4c0.8-0.6,1.9-0.6,2.6,0.1c0.9,0.9,0.7,2.3-0.2,3l-7.8,3.4c0.1,0.9,0.2,2.1,0,3.5c-0.2,1.5-0.6,2.6-0.9,3.5
	c0.1,0.1,0.4,0.6,0.2,1.2C13.9,33.8,12.8,33.8,12.6,33.8z"/>
<path class="st2" d="M15.9,24.6c2.6-0.8,4.2-2.6,6.8-3.4c1-0.7,1.1-2.1,0.2-3c-0.7-0.7-1.8-0.7-2.6-0.1c-2.2,0.6-3.7,1.9-5.9,2.5"/>
<path class="st3" d="M20.4,25.7c-0.3-1.4-0.5-3.1-0.8-4.5c-0.2-1.1,0.4-2.1,1.5-2.4c1.1-0.3,2.1,0.4,2.4,1.5c0.3,1.4,0.7,2.8,1,4.2"
	/>
<path class="st4" d="M21.7,10.9c-0.7-1.6-1.8-2.5-3.2-2c-4.2,1.5-2.5,4.9-1.2,11.3c0,0,0.9,1,3.3,0.7c1.7-0.2,2.6,1,2.9,0.8
	C23.8,21.4,23.4,14.8,21.7,10.9z"/>
<path class="st0" d="M17.3,11.9c0,0-0.8,3-3.3,3.7c-1.4,0.4-2.7-0.6-4.3-0.8l0,0c-0.5-0.1-0.9,0.2-1.1,0.6c-0.2,0.5,0.1,1.1,0.6,1.3
	c0.1,0,0.1,0,0.2,0l0,0c1.9,0.3,3.5,1.3,5,0.8c2.9-0.9,4-4,4.1-4.1L17.3,11.9z"/>
<path class="st5" d="M11.5,17.4l-0.5-0.2c-0.1,0-0.1-0.1-0.1-0.1l0.3-0.9l0.3-0.8c0-0.1,0.1-0.1,0.1-0.1l0.5,0.2
	c0.1,0,0.1,0.1,0.1,0.1l-0.3,0.8l-0.3,0.8C11.6,17.4,11.5,17.4,11.5,17.4z"/>
<path class="st5" d="M-4.3,12.8"/>
<path class="st6" d="M11.7,32l0.3-0.2c0,0,0.1,0,0.1,0c0.1,0.2,0.3,0.4,0.4,0.5c-0.3,0-0.7-0.1-0.8-0.2C11.7,32.1,11.6,32.1,11.7,32
	z"/>
<path class="st6" d="M8.1,34.9c0,0.1,0.9,0.8,3.6,0.2c0.8-0.2,3.3-0.7,3.3-0.8c0,0,0,0.1,0,0.2c0,0.1,0,0.1,0,0.2
	c-0.2,0.3-0.8,0.3-1.6,0.4l-0.1,0l-0.1,0c-0.1,0-0.5,0.1-0.9,0.1c-0.6,0.1-1.8,0.3-1.8,0.3c-0.5,0.1-0.9,0-1.5-0.1
	C8.2,35.3,8.1,34.9,8.1,34.9z"/>
<path class="st7" d="M8.1,34.9c0,0-0.1-0.1-0.1-0.2s0-0.4,0.3-0.5c0.2-0.1,1-0.5,1.2-0.6c0.1-0.1,0.2-0.2,0.4-0.3
	c0,0,0.9-0.6,1.1-0.7c0.4-0.3,0.5-0.5,0.7-0.5c0.1,0,1.1,0.6,1.6,0.6c0.3,0,0.6-0.5,0.8-0.7c0.1-0.1,0.4,0.1,0.5,0.3
	c0.1,0.2,0.3,0.9,0.3,1.1s0.1,0.4,0,0.6C14.8,34,14.8,34,14.8,34s-3.7,0.9-4.6,1C8.5,35.2,8.1,34.9,8.1,34.9z"/>
<path class="st8" d="M11.5,32c0,0,0.1-0.1,0.1-0.1c0.1,0,1.1,0.6,1.6,0.6c0.3,0,0.6-0.5,0.8-0.7c0.1,0,0.1,0,0.2,0
	c-0.2,0.2-0.6,0.8-0.9,0.8C12.8,32.8,11.9,32.2,11.5,32z"/>
<path class="st9" d="M12.7,34.1c0-0.3,0.2-0.8,0.6-1.1c0.3-0.2,1.2-0.5,1.3-0.6c0.1,0.3,0.2,0.7,0.2,0.8c0,0.2,0.1,0.4,0,0.5
	c0,0.1-0.1,0.1-0.1,0.1S12.7,34.1,12.7,34.1z"/>
<path class="st10" d="M11.5,32.7c0.1,0,0.1,0,0.2,0c0.1-0.1,0.1-0.1,0-0.2l-0.2-0.3c-0.1-0.1-0.1-0.1-0.2,0c-0.1,0.1-0.1,0.1,0,0.2
	L11.5,32.7C11.5,32.7,11.5,32.7,11.5,32.7z"/>
<path class="st10" d="M11,33.1c0,0,0.1,0,0.1,0c0.1,0,0.1-0.1,0-0.2L11,32.6c0-0.1-0.1-0.1-0.2,0c-0.1,0-0.1,0.1,0,0.2L11,33.1
	C11,33.1,11,33.1,11,33.1z"/>
<path class="st10" d="M10.5,33.3c0,0,0.1,0,0.1,0c0.1,0,0.1-0.1,0.1-0.2l-0.1-0.3c0-0.1-0.1-0.1-0.2-0.1c-0.1,0-0.1,0.1-0.1,0.2
	L10.5,33.3C10.5,33.3,10.5,33.3,10.5,33.3z"/>
<path class="st10" d="M10,33.6c0,0,0.1,0,0.1,0c0.1,0,0.1-0.1,0.1-0.2l-0.1-0.2c0-0.1-0.1-0.1-0.2-0.1c-0.1,0-0.1,0.1-0.1,0.2
	L10,33.6C10,33.5,10,33.6,10,33.6z"/>
<path class="st10" d="M14.9,33.9c0,0-0.2,0-0.3,0c-0.1,0-0.4,0-0.6,0c-0.2,0-1,0.1-1.5,0.3c-0.5,0.1-1.4,0.5-1.7,0.6
	c-0.3,0.1-0.8,0.2-1.2,0.2s-0.7,0-0.9,0c-0.3,0-0.5,0-0.7-0.1c0,0.1,0.3,0.3,0.9,0.4c0.6,0.1,1,0.1,1.4,0.1c0.4,0,2.5-0.4,2.8-0.4
	c0.3,0,1.3-0.2,1.5-0.3c0.3-0.1,0.3-0.2,0.3-0.3C15,34.2,15,33.9,14.9,33.9z"/>
<path class="st9" d="M8.3,34.2c0.2-0.1,1-0.5,1.2-0.6c0.1,0,0.1-0.1,0.1-0.1c0,0,0,0,0,0c0.1,0.2-0.1,0.6-0.6,0.8
	c-0.4,0.2-0.8,0.2-1,0.1C8.1,34.3,8.1,34.2,8.3,34.2z"/>
<path class="st6" d="M29.2,29.1l-0.2-0.3c0,0,0-0.1,0-0.1c0.2-0.1,0.5-0.3,0.6-0.4c-0.1,0.3-0.1,0.7-0.2,0.8
	C29.3,29.2,29.2,29.2,29.2,29.1z"/>
<path class="st6" d="M31.9,32.8c0.1,0,0.8-0.8,0.3-3.6c-0.1-0.8-0.6-3.3-0.7-3.3c0,0,0.1,0,0.2,0c0.1,0,0.1,0,0.1,0
	c0.3,0.2,0.3,0.8,0.4,1.6l0,0.1l0,0.1c0,0.1,0.1,0.5,0.1,1c0.1,0.6,0.2,1.8,0.2,1.9c0,0.5,0,0.9-0.1,1.5
	C32.3,32.7,31.9,32.8,31.9,32.8z"/>
<path class="st7" d="M31.9,32.8c0,0-0.1,0.1-0.2,0.1c-0.1,0-0.4,0-0.5-0.3c-0.1-0.2-0.5-1-0.6-1.2c-0.1-0.1-0.2-0.2-0.3-0.4
	c0,0-0.5-1-0.7-1.2c-0.2-0.5-0.5-0.5-0.5-0.7c0-0.1,0.7-1.1,0.6-1.5c0-0.3-0.5-0.6-0.6-0.8c-0.1-0.1,0.1-0.3,0.3-0.5
	c0.2-0.1,0.9-0.3,1.1-0.3c0.2,0,0.4-0.1,0.6,0c0.2,0.1,0.2,0.1,0.2,0.1s0.8,3.7,0.9,4.7C32.2,32.4,31.9,32.8,31.9,32.8z"/>
<path class="st8" d="M29.2,29.3c0,0-0.1-0.1-0.1-0.1c0-0.1,0.7-1.1,0.6-1.5c0-0.3-0.5-0.6-0.6-0.8c0-0.1,0-0.1,0-0.2
	c0.1,0.2,0.8,0.6,0.8,0.9C29.9,28,29.3,28.9,29.2,29.3z"/>
<path class="st9" d="M31.3,28.2c-0.3-0.1-0.8-0.3-1-0.6c-0.2-0.3-0.5-1.2-0.5-1.4c0.3-0.1,0.7-0.2,0.8-0.2c0.2,0,0.4-0.1,0.5,0
	c0.1,0,0.1,0.1,0.1,0.1S31.3,28.2,31.3,28.2z"/>
<path class="st10" d="M29.9,29.3c0-0.1,0-0.1,0-0.2c0-0.1-0.1-0.1-0.2,0l-0.3,0.2c-0.1,0.1-0.1,0.1,0,0.2c0,0.1,0.1,0.1,0.2,0
	L29.9,29.3C29.8,29.4,29.9,29.4,29.9,29.3z"/>
<path class="st10" d="M30.2,29.8c0,0,0-0.1,0-0.1c0-0.1-0.1-0.1-0.2-0.1l-0.3,0.2c-0.1,0-0.1,0.1-0.1,0.2c0,0.1,0.1,0.1,0.2,0.1
	L30.2,29.8C30.2,29.9,30.2,29.8,30.2,29.8z"/>
<path class="st10" d="M30.4,30.3c0,0,0-0.1,0-0.1c0-0.1-0.1-0.1-0.2-0.1L30,30.3c-0.1,0-0.1,0.1-0.1,0.2c0,0.1,0.1,0.1,0.2,0.1
	L30.4,30.3C30.4,30.4,30.4,30.4,30.4,30.3z"/>
<path class="st10" d="M30.7,30.8c0,0,0-0.1,0-0.1c0-0.1-0.1-0.1-0.2-0.1l-0.2,0.1c-0.1,0-0.1,0.1-0.1,0.2c0,0.1,0.1,0.1,0.2,0.1
	L30.7,30.8C30.6,30.9,30.6,30.9,30.7,30.8z"/>
<path class="st10" d="M31.1,26c0,0,0,0.2,0,0.3c0,0.1,0,0.4,0,0.6c0,0.2,0.1,1,0.2,1.5c0.1,0.5,0.5,1.4,0.6,1.7
	c0.1,0.3,0.2,0.8,0.2,1.2c0,0.4,0,0.7,0,0.9c0,0.3-0.1,0.5-0.1,0.7c0.1,0,0.3-0.3,0.5-0.9c0.1-0.6,0.1-1,0.1-1.4
	c0-0.4-0.3-2.5-0.3-2.8s-0.1-1.3-0.2-1.6c-0.1-0.3-0.2-0.3-0.3-0.3C31.5,25.9,31.1,25.9,31.1,26z"/>
<path class="st9" d="M31.2,32.6c-0.1-0.2-0.5-1-0.6-1.2c0-0.1-0.1-0.1-0.1-0.1c0,0,0,0,0,0c0.2-0.1,0.6,0.1,0.8,0.6
	c0.2,0.4,0.2,0.9,0.1,1C31.3,32.8,31.2,32.7,31.2,32.6z"/>
</svg>
